<?xml version="1.0" encoding="utf-8" standalone="no"?>
<!DOCTYPE svg PUBLIC "-//W3C//DTD SVG 1.1//EN"
  "http://www.w3.org/Graphics/SVG/1.1/DTD/svg11.dtd">
<svg height="345.6pt" version="1.1" viewBox="0 0 460.8 345.6" width="460.8pt" xmlns="http://www.w3.org/2000/svg" xmlns:xlink="http://www.w3.org/1999/xlink">
 <metadata>
  <rdf:RDF xmlns:cc="http://creativecommons.org/ns#" xmlns:dc="http://purl.org/dc/elements/1.1/" xmlns:rdf="http://www.w3.org/1999/02/22-rdf-syntax-ns#">
   <cc:Work>
    <dc:type rdf:resource="http://purl.org/dc/dcmitype/StillImage"/>
    <dc:date>2022-03-10T17:31:14.628213</dc:date>
    <dc:format>image/svg+xml</dc:format>
    <dc:creator>
     <cc:Agent>
      <dc:title>Matplotlib v3.4.1, https://matplotlib.org/</dc:title>
     </cc:Agent>
    </dc:creator>
   </cc:Work>
  </rdf:RDF>
 </metadata>
 <defs>
  <style type="text/css">*{stroke-linecap:butt;stroke-linejoin:round;}</style>
 </defs>
 <g id="figure_1">
  <g id="patch_1">
   <path d="M 0 345.6 
L 460.8 345.6 
L 460.8 0 
L 0 0 
z
" style="fill:none;"/>
  </g>
  <g id="axes_1">
   <g id="patch_2">
    <path d="M 57.6 307.584 
L 414.72 307.584 
L 414.72 41.472 
L 57.6 41.472 
z
" style="fill:none;"/>
   </g>
   <g id="matplotlib.axis_1">
    <g id="xtick_1">
     <g id="line2d_1">
      <defs>
       <path d="M 0 0 
L 0 -3.5 
" id="m14064d545a" style="stroke:#000000;stroke-width:0.8;"/>
      </defs>
      <g>
       <use style="stroke:#000000;stroke-width:0.8;" x="62.821754" xlink:href="#m14064d545a" y="307.584"/>
      </g>
     </g>
     <g id="text_1">
      <!-- −1500 -->
      <g transform="translate(47.402691 319.03025)scale(0.12 -0.12)">
       <defs>
        <path d="M 125 2325 
L 3541 2325 
L 3541 1913 
L 125 1913 
L 125 2325 
z
" id="TimesNewRomanPS-BoldMT-2212" transform="scale(0.015625)"/>
        <path d="M 2084 4325 
L 2084 859 
Q 2084 469 2118 361 
Q 2153 253 2262 184 
Q 2372 116 2613 116 
L 2709 116 
L 2709 0 
L 478 0 
L 478 116 
L 591 116 
Q 863 116 978 178 
Q 1094 241 1134 350 
Q 1175 459 1175 859 
L 1175 3056 
Q 1175 3350 1147 3423 
Q 1119 3497 1042 3548 
Q 966 3600 866 3600 
Q 706 3600 478 3500 
L 422 3613 
L 1981 4325 
L 2084 4325 
z
" id="TimesNewRomanPS-BoldMT-31" transform="scale(0.015625)"/>
        <path d="M 975 4238 
L 2959 4238 
L 2644 3431 
L 975 3431 
L 816 3009 
Q 1894 2969 2475 2472 
Q 2953 2063 2953 1453 
Q 2953 1063 2731 689 
Q 2509 316 2106 114 
Q 1703 -88 1222 -88 
Q 703 -88 425 106 
Q 231 244 231 419 
Q 231 553 332 656 
Q 434 759 569 759 
Q 691 759 816 709 
Q 941 659 1244 447 
Q 1434 316 1572 266 
Q 1669 228 1791 228 
Q 2047 228 2226 415 
Q 2406 603 2406 866 
Q 2406 1416 1856 1759 
Q 1306 2103 469 2103 
Q 384 2103 216 2100 
L 975 4238 
z
" id="TimesNewRomanPS-BoldMT-35" transform="scale(0.015625)"/>
        <path d="M 2966 2119 
Q 2966 1484 2788 934 
Q 2681 597 2501 381 
Q 2322 166 2094 39 
Q 1866 -88 1597 -88 
Q 1291 -88 1044 68 
Q 797 225 606 516 
Q 469 728 366 1081 
Q 231 1559 231 2069 
Q 231 2759 425 3338 
Q 584 3816 909 4070 
Q 1234 4325 1597 4325 
Q 1966 4325 2286 4073 
Q 2606 3822 2756 3397 
Q 2966 2813 2966 2119 
z
M 2003 2125 
Q 2003 3238 1991 3422 
Q 1959 3856 1841 4009 
Q 1763 4109 1588 4109 
Q 1453 4109 1375 4034 
Q 1259 3925 1218 3648 
Q 1178 3372 1178 1719 
Q 1178 819 1241 513 
Q 1288 291 1375 216 
Q 1463 141 1606 141 
Q 1763 141 1841 241 
Q 1972 416 1991 781 
L 2003 2125 
z
" id="TimesNewRomanPS-BoldMT-30" transform="scale(0.015625)"/>
       </defs>
       <use xlink:href="#TimesNewRomanPS-BoldMT-2212"/>
       <use x="56.982422" xlink:href="#TimesNewRomanPS-BoldMT-31"/>
       <use x="106.982422" xlink:href="#TimesNewRomanPS-BoldMT-35"/>
       <use x="156.982422" xlink:href="#TimesNewRomanPS-BoldMT-30"/>
       <use x="206.982422" xlink:href="#TimesNewRomanPS-BoldMT-30"/>
      </g>
     </g>
    </g>
    <g id="xtick_2">
     <g id="line2d_2">
      <g>
       <use style="stroke:#000000;stroke-width:0.8;" x="120.67613" xlink:href="#m14064d545a" y="307.584"/>
      </g>
     </g>
     <g id="text_2">
      <!-- −1000 -->
      <g transform="translate(105.257067 319.03025)scale(0.12 -0.12)">
       <use xlink:href="#TimesNewRomanPS-BoldMT-2212"/>
       <use x="56.982422" xlink:href="#TimesNewRomanPS-BoldMT-31"/>
       <use x="106.982422" xlink:href="#TimesNewRomanPS-BoldMT-30"/>
       <use x="156.982422" xlink:href="#TimesNewRomanPS-BoldMT-30"/>
       <use x="206.982422" xlink:href="#TimesNewRomanPS-BoldMT-30"/>
      </g>
     </g>
    </g>
    <g id="xtick_3">
     <g id="line2d_3">
      <g>
       <use style="stroke:#000000;stroke-width:0.8;" x="178.530506" xlink:href="#m14064d545a" y="307.584"/>
      </g>
     </g>
     <g id="text_3">
      <!-- −500 -->
      <g transform="translate(166.111444 319.03025)scale(0.12 -0.12)">
       <use xlink:href="#TimesNewRomanPS-BoldMT-2212"/>
       <use x="56.982422" xlink:href="#TimesNewRomanPS-BoldMT-35"/>
       <use x="106.982422" xlink:href="#TimesNewRomanPS-BoldMT-30"/>
       <use x="156.982422" xlink:href="#TimesNewRomanPS-BoldMT-30"/>
      </g>
     </g>
    </g>
    <g id="xtick_4">
     <g id="line2d_4">
      <g>
       <use style="stroke:#000000;stroke-width:0.8;" x="236.384882" xlink:href="#m14064d545a" y="307.584"/>
      </g>
     </g>
     <g id="text_4">
      <!-- 0 -->
      <g transform="translate(233.384882 319.03025)scale(0.12 -0.12)">
       <use xlink:href="#TimesNewRomanPS-BoldMT-30"/>
      </g>
     </g>
    </g>
    <g id="xtick_5">
     <g id="line2d_5">
      <g>
       <use style="stroke:#000000;stroke-width:0.8;" x="294.239258" xlink:href="#m14064d545a" y="307.584"/>
      </g>
     </g>
     <g id="text_5">
      <!-- 500 -->
      <g transform="translate(285.239258 319.03025)scale(0.12 -0.12)">
       <use xlink:href="#TimesNewRomanPS-BoldMT-35"/>
       <use x="50" xlink:href="#TimesNewRomanPS-BoldMT-30"/>
       <use x="100" xlink:href="#TimesNewRomanPS-BoldMT-30"/>
      </g>
     </g>
    </g>
    <g id="xtick_6">
     <g id="line2d_6">
      <g>
       <use style="stroke:#000000;stroke-width:0.8;" x="352.093634" xlink:href="#m14064d545a" y="307.584"/>
      </g>
     </g>
     <g id="text_6">
      <!-- 1000 -->
      <g transform="translate(340.093634 319.03025)scale(0.12 -0.12)">
       <use xlink:href="#TimesNewRomanPS-BoldMT-31"/>
       <use x="50" xlink:href="#TimesNewRomanPS-BoldMT-30"/>
       <use x="100" xlink:href="#TimesNewRomanPS-BoldMT-30"/>
       <use x="150" xlink:href="#TimesNewRomanPS-BoldMT-30"/>
      </g>
     </g>
    </g>
    <g id="xtick_7">
     <g id="line2d_7">
      <g>
       <use style="stroke:#000000;stroke-width:0.8;" x="409.94801" xlink:href="#m14064d545a" y="307.584"/>
      </g>
     </g>
     <g id="text_7">
      <!-- 1500 -->
      <g transform="translate(397.94801 319.03025)scale(0.12 -0.12)">
       <use xlink:href="#TimesNewRomanPS-BoldMT-31"/>
       <use x="50" xlink:href="#TimesNewRomanPS-BoldMT-35"/>
       <use x="100" xlink:href="#TimesNewRomanPS-BoldMT-30"/>
       <use x="150" xlink:href="#TimesNewRomanPS-BoldMT-30"/>
      </g>
     </g>
    </g>
    <g id="text_8">
     <!-- Electric Filed (kV/cm) -->
     <g transform="translate(160.1875 336.222125)scale(0.16 -0.16)">
      <defs>
       <path d="M 1744 3994 
L 1744 2269 
L 1828 2269 
Q 2231 2269 2412 2522 
Q 2594 2775 2644 3269 
L 2763 3269 
L 2763 1050 
L 2644 1050 
Q 2606 1413 2486 1644 
Q 2366 1875 2206 1954 
Q 2047 2034 1744 2034 
L 1744 841 
Q 1744 491 1773 412 
Q 1803 334 1884 284 
Q 1966 234 2147 234 
L 2400 234 
Q 2994 234 3351 509 
Q 3709 784 3866 1347 
L 3981 1347 
L 3791 0 
L 128 0 
L 128 116 
L 269 116 
Q 453 116 566 181 
Q 647 225 691 331 
Q 725 406 725 725 
L 725 3513 
Q 725 3800 709 3866 
Q 678 3975 594 4034 
Q 475 4122 269 4122 
L 128 4122 
L 128 4238 
L 3675 4238 
L 3675 2984 
L 3556 2984 
Q 3466 3444 3302 3644 
Q 3138 3844 2838 3938 
Q 2663 3994 2181 3994 
L 1744 3994 
z
" id="TimesNewRomanPS-BoldMT-45" transform="scale(0.015625)"/>
       <path d="M 1359 4238 
L 1359 606 
Q 1359 297 1431 211 
Q 1503 125 1713 113 
L 1713 0 
L 134 0 
L 134 113 
Q 328 119 422 225 
Q 484 297 484 606 
L 484 3631 
Q 484 3938 412 4023 
Q 341 4109 134 4122 
L 134 4238 
L 1359 4238 
z
" id="TimesNewRomanPS-BoldMT-6c" transform="scale(0.015625)"/>
       <path d="M 2691 1566 
L 1088 1566 
Q 1116 984 1397 647 
Q 1613 388 1916 388 
Q 2103 388 2256 492 
Q 2409 597 2584 869 
L 2691 800 
Q 2453 316 2165 114 
Q 1878 -88 1500 -88 
Q 850 -88 516 413 
Q 247 816 247 1413 
Q 247 2144 642 2576 
Q 1038 3009 1569 3009 
Q 2013 3009 2339 2645 
Q 2666 2281 2691 1566 
z
M 1922 1775 
Q 1922 2278 1867 2465 
Q 1813 2653 1697 2750 
Q 1631 2806 1522 2806 
Q 1359 2806 1256 2647 
Q 1072 2369 1072 1884 
L 1072 1775 
L 1922 1775 
z
" id="TimesNewRomanPS-BoldMT-65" transform="scale(0.015625)"/>
       <path d="M 2600 753 
L 2697 678 
Q 2491 291 2183 101 
Q 1875 -88 1528 -88 
Q 944 -88 594 353 
Q 244 794 244 1413 
Q 244 2009 563 2463 
Q 947 3009 1622 3009 
Q 2075 3009 2342 2781 
Q 2609 2553 2609 2272 
Q 2609 2094 2501 1987 
Q 2394 1881 2219 1881 
Q 2034 1881 1914 2003 
Q 1794 2125 1766 2438 
Q 1747 2634 1675 2713 
Q 1603 2791 1506 2791 
Q 1356 2791 1250 2631 
Q 1088 2391 1088 1894 
Q 1088 1481 1219 1104 
Q 1350 728 1578 544 
Q 1750 409 1984 409 
Q 2138 409 2275 481 
Q 2413 553 2600 753 
z
" id="TimesNewRomanPS-BoldMT-63" transform="scale(0.015625)"/>
       <path d="M 1375 3991 
L 1375 2922 
L 2069 2922 
L 2069 2613 
L 1375 2613 
L 1375 809 
Q 1375 556 1398 482 
Q 1422 409 1481 364 
Q 1541 319 1591 319 
Q 1794 319 1975 628 
L 2069 559 
Q 1816 -41 1247 -41 
Q 969 -41 776 114 
Q 584 269 531 459 
Q 500 566 500 1034 
L 500 2613 
L 119 2613 
L 119 2722 
Q 513 3000 789 3306 
Q 1066 3613 1272 3991 
L 1375 3991 
z
" id="TimesNewRomanPS-BoldMT-74" transform="scale(0.015625)"/>
       <path d="M 1428 2922 
L 1428 2259 
Q 1719 2713 1937 2861 
Q 2156 3009 2359 3009 
Q 2534 3009 2639 2901 
Q 2744 2794 2744 2597 
Q 2744 2388 2642 2272 
Q 2541 2156 2397 2156 
Q 2231 2156 2109 2262 
Q 1988 2369 1966 2381 
Q 1934 2400 1894 2400 
Q 1803 2400 1722 2331 
Q 1594 2225 1528 2028 
Q 1428 1725 1428 1359 
L 1428 688 
L 1431 513 
Q 1431 334 1453 284 
Q 1491 200 1564 161 
Q 1638 122 1813 113 
L 1813 0 
L 234 0 
L 234 113 
Q 425 128 492 217 
Q 559 306 559 688 
L 559 2303 
Q 559 2553 534 2622 
Q 503 2709 443 2750 
Q 384 2791 234 2806 
L 234 2922 
L 1428 2922 
z
" id="TimesNewRomanPS-BoldMT-72" transform="scale(0.015625)"/>
       <path d="M 919 4338 
Q 1122 4338 1262 4195 
Q 1403 4053 1403 3853 
Q 1403 3653 1261 3512 
Q 1119 3372 919 3372 
Q 719 3372 578 3512 
Q 438 3653 438 3853 
Q 438 4053 578 4195 
Q 719 4338 919 4338 
z
M 1356 2922 
L 1356 606 
Q 1356 297 1428 211 
Q 1500 125 1709 113 
L 1709 0 
L 131 0 
L 131 113 
Q 325 119 419 225 
Q 481 297 481 606 
L 481 2313 
Q 481 2622 409 2708 
Q 338 2794 131 2806 
L 131 2922 
L 1356 2922 
z
" id="TimesNewRomanPS-BoldMT-69" transform="scale(0.015625)"/>
       <path id="TimesNewRomanPS-BoldMT-20" transform="scale(0.015625)"/>
       <path d="M 1759 3994 
L 1759 2253 
L 1881 2253 
Q 2163 2253 2341 2337 
Q 2519 2422 2642 2622 
Q 2766 2822 2803 3163 
L 2913 3163 
L 2913 1034 
L 2803 1034 
Q 2744 1638 2480 1830 
Q 2216 2022 1881 2022 
L 1759 2022 
L 1759 725 
Q 1759 400 1795 319 
Q 1831 238 1936 177 
Q 2041 116 2219 116 
L 2359 116 
L 2359 0 
L 144 0 
L 144 116 
L 284 116 
Q 469 116 581 181 
Q 663 225 706 331 
Q 741 406 741 725 
L 741 3513 
Q 741 3838 706 3919 
Q 672 4000 567 4061 
Q 463 4122 284 4122 
L 144 4122 
L 144 4238 
L 3719 4238 
L 3719 3022 
L 3591 3022 
Q 3547 3450 3367 3656 
Q 3188 3863 2847 3947 
Q 2659 3994 2153 3994 
L 1759 3994 
z
" id="TimesNewRomanPS-BoldMT-46" transform="scale(0.015625)"/>
       <path d="M 3056 4238 
L 3056 875 
Q 3056 534 3075 472 
Q 3100 369 3170 319 
Q 3241 269 3416 256 
L 3416 153 
L 2181 -88 
L 2181 375 
Q 1959 106 1786 9 
Q 1613 -88 1394 -88 
Q 834 -88 509 413 
Q 247 819 247 1409 
Q 247 1881 409 2254 
Q 572 2628 855 2818 
Q 1138 3009 1463 3009 
Q 1672 3009 1834 2928 
Q 1997 2847 2181 2644 
L 2181 3525 
Q 2181 3859 2153 3928 
Q 2116 4019 2041 4062 
Q 1966 4106 1759 4106 
L 1759 4238 
L 3056 4238 
z
M 2181 2256 
Q 1950 2700 1616 2700 
Q 1500 2700 1425 2638 
Q 1309 2541 1236 2297 
Q 1163 2053 1163 1550 
Q 1163 997 1244 731 
Q 1325 466 1466 347 
Q 1538 288 1663 288 
Q 1938 288 2181 719 
L 2181 2256 
z
" id="TimesNewRomanPS-BoldMT-64" transform="scale(0.015625)"/>
       <path d="M 2056 4334 
L 2056 4191 
Q 1731 3978 1578 3775 
Q 1366 3494 1247 3053 
Q 1097 2506 1097 1525 
Q 1097 600 1233 87 
Q 1369 -425 1603 -741 
Q 1766 -959 2056 -1125 
L 2056 -1281 
Q 1303 -1028 779 -248 
Q 256 531 256 1544 
Q 256 2544 778 3314 
Q 1300 4084 2056 4334 
z
" id="TimesNewRomanPS-BoldMT-28" transform="scale(0.015625)"/>
       <path d="M 1403 4238 
L 1403 1450 
L 2081 2116 
Q 2291 2319 2342 2409 
Q 2394 2500 2394 2584 
Q 2394 2669 2325 2725 
Q 2256 2781 2056 2806 
L 2056 2922 
L 3366 2922 
L 3366 2806 
Q 3178 2797 3037 2717 
Q 2897 2638 2488 2238 
L 2169 1925 
L 2856 919 
Q 3272 306 3350 231 
Q 3456 125 3619 113 
L 3619 0 
L 2109 0 
L 2109 113 
Q 2209 113 2254 150 
Q 2300 188 2300 231 
Q 2300 303 2169 497 
L 1591 1344 
L 1403 1159 
L 1403 634 
Q 1403 300 1465 217 
Q 1528 134 1722 113 
L 1722 0 
L 213 0 
L 213 113 
Q 397 131 475 231 
Q 528 300 528 634 
L 528 3603 
Q 528 3934 467 4015 
Q 406 4097 213 4122 
L 213 4238 
L 1403 4238 
z
" id="TimesNewRomanPS-BoldMT-6b" transform="scale(0.015625)"/>
       <path d="M 4556 4238 
L 4556 4122 
Q 4325 4084 4144 3875 
Q 4013 3719 3753 3141 
L 2294 -97 
L 2191 -97 
L 738 3272 
Q 475 3881 386 3987 
Q 297 4094 50 4122 
L 50 4238 
L 2081 4238 
L 2081 4122 
L 2013 4122 
Q 1738 4122 1638 4053 
Q 1566 4006 1566 3916 
Q 1566 3859 1591 3782 
Q 1616 3706 1759 3372 
L 2663 1263 
L 3500 3141 
Q 3650 3481 3684 3597 
Q 3719 3713 3719 3794 
Q 3719 3888 3669 3959 
Q 3619 4031 3522 4069 
Q 3388 4122 3166 4122 
L 3166 4238 
L 4556 4238 
z
" id="TimesNewRomanPS-BoldMT-56" transform="scale(0.015625)"/>
       <path d="M 1797 4334 
L 406 -97 
L 6 -97 
L 1403 4334 
L 1797 4334 
z
" id="TimesNewRomanPS-BoldMT-2f" transform="scale(0.015625)"/>
       <path d="M 1428 2922 
L 1428 2538 
Q 1669 2800 1873 2904 
Q 2078 3009 2322 3009 
Q 2603 3009 2793 2878 
Q 2984 2747 3088 2478 
Q 3338 2759 3567 2884 
Q 3797 3009 4047 3009 
Q 4350 3009 4529 2870 
Q 4709 2731 4779 2517 
Q 4850 2303 4850 1834 
L 4850 638 
Q 4850 300 4911 219 
Q 4972 138 5166 113 
L 5166 0 
L 3656 0 
L 3656 113 
Q 3834 128 3919 250 
Q 3975 334 3975 638 
L 3975 1894 
Q 3975 2284 3944 2390 
Q 3913 2497 3845 2548 
Q 3778 2600 3688 2600 
Q 3553 2600 3415 2501 
Q 3278 2403 3138 2206 
L 3138 638 
Q 3138 322 3191 241 
Q 3263 125 3466 113 
L 3466 0 
L 1953 0 
L 1953 113 
Q 2075 119 2145 173 
Q 2216 228 2239 304 
Q 2263 381 2263 638 
L 2263 1894 
Q 2263 2291 2231 2391 
Q 2200 2491 2126 2547 
Q 2053 2603 1969 2603 
Q 1844 2603 1741 2538 
Q 1594 2441 1428 2206 
L 1428 638 
Q 1428 328 1489 229 
Q 1550 131 1744 113 
L 1744 0 
L 238 0 
L 238 113 
Q 422 131 500 231 
Q 553 300 553 638 
L 553 2288 
Q 553 2619 492 2700 
Q 431 2781 238 2806 
L 238 2922 
L 1428 2922 
z
" id="TimesNewRomanPS-BoldMT-6d" transform="scale(0.015625)"/>
       <path d="M 78 -1281 
L 78 -1138 
Q 403 -922 556 -719 
Q 766 -438 888 0 
Q 1038 550 1038 1531 
Q 1038 2456 902 2967 
Q 766 3478 531 3794 
Q 369 4013 78 4178 
L 78 4334 
Q 831 4081 1354 3301 
Q 1878 2522 1878 1509 
Q 1878 513 1354 -257 
Q 831 -1028 78 -1281 
z
" id="TimesNewRomanPS-BoldMT-29" transform="scale(0.015625)"/>
      </defs>
      <use xlink:href="#TimesNewRomanPS-BoldMT-45"/>
      <use x="66.699219" xlink:href="#TimesNewRomanPS-BoldMT-6c"/>
      <use x="94.482422" xlink:href="#TimesNewRomanPS-BoldMT-65"/>
      <use x="138.867188" xlink:href="#TimesNewRomanPS-BoldMT-63"/>
      <use x="183.251953" xlink:href="#TimesNewRomanPS-BoldMT-74"/>
      <use x="216.552734" xlink:href="#TimesNewRomanPS-BoldMT-72"/>
      <use x="260.9375" xlink:href="#TimesNewRomanPS-BoldMT-69"/>
      <use x="288.720703" xlink:href="#TimesNewRomanPS-BoldMT-63"/>
      <use x="333.105469" xlink:href="#TimesNewRomanPS-BoldMT-20"/>
      <use x="358.105469" xlink:href="#TimesNewRomanPS-BoldMT-46"/>
      <use x="419.189453" xlink:href="#TimesNewRomanPS-BoldMT-69"/>
      <use x="446.972656" xlink:href="#TimesNewRomanPS-BoldMT-6c"/>
      <use x="474.755859" xlink:href="#TimesNewRomanPS-BoldMT-65"/>
      <use x="519.140625" xlink:href="#TimesNewRomanPS-BoldMT-64"/>
      <use x="574.755859" xlink:href="#TimesNewRomanPS-BoldMT-20"/>
      <use x="599.755859" xlink:href="#TimesNewRomanPS-BoldMT-28"/>
      <use x="633.056641" xlink:href="#TimesNewRomanPS-BoldMT-6b"/>
      <use x="688.671875" xlink:href="#TimesNewRomanPS-BoldMT-56"/>
      <use x="760.888672" xlink:href="#TimesNewRomanPS-BoldMT-2f"/>
      <use x="788.671875" xlink:href="#TimesNewRomanPS-BoldMT-63"/>
      <use x="833.056641" xlink:href="#TimesNewRomanPS-BoldMT-6d"/>
      <use x="916.357422" xlink:href="#TimesNewRomanPS-BoldMT-29"/>
     </g>
    </g>
   </g>
   <g id="matplotlib.axis_2">
    <g id="ytick_1">
     <g id="line2d_8">
      <defs>
       <path d="M 0 0 
L 3.5 0 
" id="m6057a83a6f" style="stroke:#000000;stroke-width:0.8;"/>
      </defs>
      <g>
       <use style="stroke:#000000;stroke-width:0.8;" x="57.6" xlink:href="#m6057a83a6f" y="295.66769"/>
      </g>
     </g>
     <g id="text_9">
      <!-- −100 -->
      <g transform="translate(29.261875 299.640815)scale(0.12 -0.12)">
       <use xlink:href="#TimesNewRomanPS-BoldMT-2212"/>
       <use x="56.982422" xlink:href="#TimesNewRomanPS-BoldMT-31"/>
       <use x="106.982422" xlink:href="#TimesNewRomanPS-BoldMT-30"/>
       <use x="156.982422" xlink:href="#TimesNewRomanPS-BoldMT-30"/>
      </g>
     </g>
    </g>
    <g id="ytick_2">
     <g id="line2d_9">
      <g>
       <use style="stroke:#000000;stroke-width:0.8;" x="57.6" xlink:href="#m6057a83a6f" y="264.454182"/>
      </g>
     </g>
     <g id="text_10">
      <!-- −75 -->
      <g transform="translate(35.261875 268.427307)scale(0.12 -0.12)">
       <defs>
        <path d="M 1134 -88 
L 2288 3409 
L 1409 3409 
Q 894 3409 634 3275 
Q 453 3181 334 2922 
L 216 2922 
L 522 4238 
L 3047 4238 
L 1625 -88 
L 1134 -88 
z
" id="TimesNewRomanPS-BoldMT-37" transform="scale(0.015625)"/>
       </defs>
       <use xlink:href="#TimesNewRomanPS-BoldMT-2212"/>
       <use x="56.982422" xlink:href="#TimesNewRomanPS-BoldMT-37"/>
       <use x="106.982422" xlink:href="#TimesNewRomanPS-BoldMT-35"/>
      </g>
     </g>
    </g>
    <g id="ytick_3">
     <g id="line2d_10">
      <g>
       <use style="stroke:#000000;stroke-width:0.8;" x="57.6" xlink:href="#m6057a83a6f" y="233.240674"/>
      </g>
     </g>
     <g id="text_11">
      <!-- −50 -->
      <g transform="translate(35.261875 237.213799)scale(0.12 -0.12)">
       <use xlink:href="#TimesNewRomanPS-BoldMT-2212"/>
       <use x="56.982422" xlink:href="#TimesNewRomanPS-BoldMT-35"/>
       <use x="106.982422" xlink:href="#TimesNewRomanPS-BoldMT-30"/>
      </g>
     </g>
    </g>
    <g id="ytick_4">
     <g id="line2d_11">
      <g>
       <use style="stroke:#000000;stroke-width:0.8;" x="57.6" xlink:href="#m6057a83a6f" y="202.027166"/>
      </g>
     </g>
     <g id="text_12">
      <!-- −25 -->
      <g transform="translate(35.261875 206.000291)scale(0.12 -0.12)">
       <defs>
        <path d="M 2650 0 
L 156 0 
L 156 69 
Q 1303 1434 1548 1906 
Q 1794 2378 1794 2828 
Q 1794 3156 1591 3373 
Q 1388 3591 1094 3591 
Q 613 3591 347 3109 
L 231 3150 
Q 400 3750 744 4037 
Q 1088 4325 1538 4325 
Q 1859 4325 2125 4175 
Q 2391 4025 2541 3764 
Q 2691 3503 2691 3275 
Q 2691 2859 2459 2431 
Q 2144 1853 1081 819 
L 1997 819 
Q 2334 819 2436 847 
Q 2538 875 2603 942 
Q 2669 1009 2775 1225 
L 2888 1225 
L 2650 0 
z
" id="TimesNewRomanPS-BoldMT-32" transform="scale(0.015625)"/>
       </defs>
       <use xlink:href="#TimesNewRomanPS-BoldMT-2212"/>
       <use x="56.982422" xlink:href="#TimesNewRomanPS-BoldMT-32"/>
       <use x="106.982422" xlink:href="#TimesNewRomanPS-BoldMT-35"/>
      </g>
     </g>
    </g>
    <g id="ytick_5">
     <g id="line2d_12">
      <g>
       <use style="stroke:#000000;stroke-width:0.8;" x="57.6" xlink:href="#m6057a83a6f" y="170.813657"/>
      </g>
     </g>
     <g id="text_13">
      <!-- 0 -->
      <g transform="translate(48.1 174.786782)scale(0.12 -0.12)">
       <use xlink:href="#TimesNewRomanPS-BoldMT-30"/>
      </g>
     </g>
    </g>
    <g id="ytick_6">
     <g id="line2d_13">
      <g>
       <use style="stroke:#000000;stroke-width:0.8;" x="57.6" xlink:href="#m6057a83a6f" y="139.600149"/>
      </g>
     </g>
     <g id="text_14">
      <!-- 25 -->
      <g transform="translate(42.1 143.573274)scale(0.12 -0.12)">
       <use xlink:href="#TimesNewRomanPS-BoldMT-32"/>
       <use x="50" xlink:href="#TimesNewRomanPS-BoldMT-35"/>
      </g>
     </g>
    </g>
    <g id="ytick_7">
     <g id="line2d_14">
      <g>
       <use style="stroke:#000000;stroke-width:0.8;" x="57.6" xlink:href="#m6057a83a6f" y="108.386641"/>
      </g>
     </g>
     <g id="text_15">
      <!-- 50 -->
      <g transform="translate(42.1 112.359766)scale(0.12 -0.12)">
       <use xlink:href="#TimesNewRomanPS-BoldMT-35"/>
       <use x="50" xlink:href="#TimesNewRomanPS-BoldMT-30"/>
      </g>
     </g>
    </g>
    <g id="ytick_8">
     <g id="line2d_15">
      <g>
       <use style="stroke:#000000;stroke-width:0.8;" x="57.6" xlink:href="#m6057a83a6f" y="77.173133"/>
      </g>
     </g>
     <g id="text_16">
      <!-- 75 -->
      <g transform="translate(42.1 81.146258)scale(0.12 -0.12)">
       <use xlink:href="#TimesNewRomanPS-BoldMT-37"/>
       <use x="50" xlink:href="#TimesNewRomanPS-BoldMT-35"/>
      </g>
     </g>
    </g>
    <g id="ytick_9">
     <g id="line2d_16">
      <g>
       <use style="stroke:#000000;stroke-width:0.8;" x="57.6" xlink:href="#m6057a83a6f" y="45.959625"/>
      </g>
     </g>
     <g id="text_17">
      <!-- 100 -->
      <g transform="translate(36.1 49.93275)scale(0.12 -0.12)">
       <use xlink:href="#TimesNewRomanPS-BoldMT-31"/>
       <use x="50" xlink:href="#TimesNewRomanPS-BoldMT-30"/>
       <use x="100" xlink:href="#TimesNewRomanPS-BoldMT-30"/>
      </g>
     </g>
    </g>
    <g id="text_18">
     <!-- Polarization (μC/cm²) -->
     <g transform="translate(21.809375 248.773)rotate(-90)scale(0.16 -0.16)">
      <defs>
       <path d="M 1728 1919 
L 1728 744 
Q 1728 400 1770 311 
Q 1813 222 1920 169 
Q 2028 116 2316 116 
L 2316 0 
L 163 0 
L 163 116 
Q 456 116 561 170 
Q 666 225 708 312 
Q 750 400 750 744 
L 750 3494 
Q 750 3838 708 3927 
Q 666 4016 559 4069 
Q 453 4122 163 4122 
L 163 4238 
L 2009 4238 
Q 2922 4238 3319 3913 
Q 3716 3588 3716 3100 
Q 3716 2688 3459 2394 
Q 3203 2100 2753 1994 
Q 2450 1919 1728 1919 
z
M 1728 3994 
L 1728 2163 
Q 1831 2156 1884 2156 
Q 2266 2156 2472 2382 
Q 2678 2609 2678 3084 
Q 2678 3556 2472 3775 
Q 2266 3994 1856 3994 
L 1728 3994 
z
" id="TimesNewRomanPS-BoldMT-50" transform="scale(0.015625)"/>
       <path d="M 1594 3009 
Q 1975 3009 2303 2812 
Q 2631 2616 2801 2253 
Q 2972 1891 2972 1459 
Q 2972 838 2656 419 
Q 2275 -88 1603 -88 
Q 944 -88 587 375 
Q 231 838 231 1447 
Q 231 2075 595 2542 
Q 959 3009 1594 3009 
z
M 1606 2788 
Q 1447 2788 1333 2667 
Q 1219 2547 1183 2192 
Q 1147 1838 1147 1206 
Q 1147 872 1191 581 
Q 1225 359 1337 243 
Q 1450 128 1594 128 
Q 1734 128 1828 206 
Q 1950 313 1991 503 
Q 2053 800 2053 1703 
Q 2053 2234 1993 2432 
Q 1934 2631 1819 2722 
Q 1738 2788 1606 2788 
z
" id="TimesNewRomanPS-BoldMT-6f" transform="scale(0.015625)"/>
       <path d="M 1828 431 
Q 1294 -41 869 -41 
Q 619 -41 453 123 
Q 288 288 288 534 
Q 288 869 575 1136 
Q 863 1403 1828 1847 
L 1828 2141 
Q 1828 2472 1792 2558 
Q 1756 2644 1656 2708 
Q 1556 2772 1431 2772 
Q 1228 2772 1097 2681 
Q 1016 2625 1016 2550 
Q 1016 2484 1103 2388 
Q 1222 2253 1222 2128 
Q 1222 1975 1108 1867 
Q 994 1759 809 1759 
Q 613 1759 480 1878 
Q 347 1997 347 2156 
Q 347 2381 525 2586 
Q 703 2791 1022 2900 
Q 1341 3009 1684 3009 
Q 2100 3009 2342 2832 
Q 2584 2656 2656 2450 
Q 2700 2319 2700 1847 
L 2700 713 
Q 2700 513 2715 461 
Q 2731 409 2762 384 
Q 2794 359 2834 359 
Q 2916 359 3000 475 
L 3094 400 
Q 2938 169 2770 64 
Q 2603 -41 2391 -41 
Q 2141 -41 2000 76 
Q 1859 194 1828 431 
z
M 1828 659 
L 1828 1638 
Q 1450 1416 1266 1163 
Q 1144 994 1144 822 
Q 1144 678 1247 569 
Q 1325 484 1466 484 
Q 1622 484 1828 659 
z
" id="TimesNewRomanPS-BoldMT-61" transform="scale(0.015625)"/>
       <path d="M 2609 0 
L 66 0 
L 66 69 
L 1672 2731 
L 1203 2731 
Q 900 2731 769 2676 
Q 638 2622 556 2501 
Q 475 2381 388 2072 
L 278 2072 
L 278 2922 
L 2738 2922 
L 2738 2838 
L 1144 200 
L 1344 200 
Q 1944 200 2209 372 
Q 2475 544 2609 1000 
L 2697 1000 
L 2609 0 
z
" id="TimesNewRomanPS-BoldMT-7a" transform="scale(0.015625)"/>
       <path d="M 1409 2922 
L 1409 2544 
Q 1634 2788 1840 2898 
Q 2047 3009 2284 3009 
Q 2569 3009 2756 2851 
Q 2944 2694 3006 2459 
Q 3056 2281 3056 1775 
L 3056 638 
Q 3056 300 3117 217 
Q 3178 134 3372 113 
L 3372 0 
L 1894 0 
L 1894 113 
Q 2059 134 2131 250 
Q 2181 328 2181 638 
L 2181 1938 
Q 2181 2297 2153 2390 
Q 2125 2484 2058 2536 
Q 1991 2588 1909 2588 
Q 1641 2588 1409 2203 
L 1409 638 
Q 1409 309 1470 221 
Q 1531 134 1697 113 
L 1697 0 
L 219 0 
L 219 113 
Q 403 131 481 231 
Q 534 300 534 638 
L 534 2288 
Q 534 2619 473 2700 
Q 413 2781 219 2806 
L 219 2922 
L 1409 2922 
z
" id="TimesNewRomanPS-BoldMT-6e" transform="scale(0.015625)"/>
       <path d="M 3416 819 
L 3531 819 
Q 3528 350 3318 131 
Q 3109 -88 2806 -88 
Q 2309 -88 2141 391 
Q 1759 -88 1263 -88 
Q 1069 -88 922 34 
Q 963 -219 1059 -544 
Q 1138 -809 1138 -922 
Q 1138 -1119 1034 -1250 
Q 931 -1381 734 -1381 
Q 334 -1381 334 -981 
Q 334 -856 400 -563 
Q 494 -134 494 419 
L 494 2922 
L 1369 2922 
L 1369 925 
Q 1369 572 1426 455 
Q 1484 338 1644 338 
Q 1888 338 2141 725 
L 2141 2922 
L 3016 2922 
L 3016 741 
Q 3016 391 3200 391 
Q 3403 391 3416 819 
z
" id="TimesNewRomanPS-BoldMT-3bc" transform="scale(0.015625)"/>
       <path d="M 4272 4334 
L 4272 2866 
L 4150 2866 
Q 4013 3441 3638 3747 
Q 3263 4053 2788 4053 
Q 2391 4053 2059 3825 
Q 1728 3597 1575 3228 
Q 1378 2756 1378 2178 
Q 1378 1609 1522 1142 
Q 1666 675 1972 436 
Q 2278 197 2766 197 
Q 3166 197 3498 372 
Q 3831 547 4200 975 
L 4200 609 
Q 3844 238 3458 70 
Q 3072 -97 2556 -97 
Q 1878 -97 1351 175 
Q 825 447 539 956 
Q 253 1466 253 2041 
Q 253 2647 570 3190 
Q 888 3734 1427 4034 
Q 1966 4334 2572 4334 
Q 3019 4334 3516 4141 
Q 3803 4028 3881 4028 
Q 3981 4028 4054 4101 
Q 4128 4175 4150 4334 
L 4272 4334 
z
" id="TimesNewRomanPS-BoldMT-43" transform="scale(0.015625)"/>
       <path d="M 1622 2075 
L 75 2075 
L 75 2131 
Q 784 2866 912 3100 
Q 1041 3334 1041 3534 
Q 1041 3694 934 3801 
Q 828 3909 666 3909 
Q 400 3909 247 3653 
L 116 3694 
Q 216 4009 425 4167 
Q 634 4325 922 4325 
Q 1247 4325 1447 4147 
Q 1647 3969 1647 3753 
Q 1647 3563 1486 3302 
Q 1325 3041 725 2534 
L 1200 2534 
Q 1428 2534 1484 2562 
Q 1541 2591 1597 2697 
Q 1613 2728 1622 2741 
L 1766 2741 
L 1622 2075 
z
" id="TimesNewRomanPS-BoldMT-b2" transform="scale(0.015625)"/>
      </defs>
      <use xlink:href="#TimesNewRomanPS-BoldMT-50"/>
      <use x="61.083984" xlink:href="#TimesNewRomanPS-BoldMT-6f"/>
      <use x="111.083984" xlink:href="#TimesNewRomanPS-BoldMT-6c"/>
      <use x="138.867188" xlink:href="#TimesNewRomanPS-BoldMT-61"/>
      <use x="188.867188" xlink:href="#TimesNewRomanPS-BoldMT-72"/>
      <use x="233.251953" xlink:href="#TimesNewRomanPS-BoldMT-69"/>
      <use x="261.035156" xlink:href="#TimesNewRomanPS-BoldMT-7a"/>
      <use x="305.419922" xlink:href="#TimesNewRomanPS-BoldMT-61"/>
      <use x="355.419922" xlink:href="#TimesNewRomanPS-BoldMT-74"/>
      <use x="388.720703" xlink:href="#TimesNewRomanPS-BoldMT-69"/>
      <use x="416.503906" xlink:href="#TimesNewRomanPS-BoldMT-6f"/>
      <use x="466.503906" xlink:href="#TimesNewRomanPS-BoldMT-6e"/>
      <use x="522.119141" xlink:href="#TimesNewRomanPS-BoldMT-20"/>
      <use x="547.119141" xlink:href="#TimesNewRomanPS-BoldMT-28"/>
      <use x="580.419922" xlink:href="#TimesNewRomanPS-BoldMT-3bc"/>
      <use x="637.109375" xlink:href="#TimesNewRomanPS-BoldMT-43"/>
      <use x="709.326172" xlink:href="#TimesNewRomanPS-BoldMT-2f"/>
      <use x="737.109375" xlink:href="#TimesNewRomanPS-BoldMT-63"/>
      <use x="781.494141" xlink:href="#TimesNewRomanPS-BoldMT-6d"/>
      <use x="864.794922" xlink:href="#TimesNewRomanPS-BoldMT-b2"/>
      <use x="894.775391" xlink:href="#TimesNewRomanPS-BoldMT-29"/>
     </g>
    </g>
   </g>
   <g id="line2d_17">
    <path clip-path="url(#pf303f138bc)" d="M 57.6 170.813657 
L 414.72 170.813657 
" style="fill:none;stroke:#000000;stroke-linecap:square;"/>
   </g>
   <g id="line2d_18">
    <path clip-path="url(#pf303f138bc)" d="M 236.384882 307.584 
L 236.384882 41.472 
" style="fill:none;stroke:#000000;stroke-linecap:square;"/>
   </g>
   <g id="line2d_19">
    <path clip-path="url(#pf303f138bc)" d="M 235.917976 174.062769 
L 237.009709 173.872174 
L 239.399095 173.675577 
L 248.34231 172.377433 
L 266.513513 169.200357 
L 272.466299 167.941233 
L 275.374232 167.255392 
L 281.457512 165.486015 
L 284.399729 164.400977 
L 287.427655 163.165864 
L 290.424726 161.74616 
L 293.456081 160.096842 
L 296.494293 158.11736 
L 299.525863 155.747684 
L 302.502149 152.989316 
L 305.581716 149.845257 
L 308.664497 146.309503 
L 308.81899 144.732221 
L 306.673449 144.151432 
L 303.978507 144.239976 
L 295.224068 145.294999 
L 289.278138 146.398047 
L 280.36235 148.412046 
L 271.391922 151.009834 
L 265.473205 153.044844 
L 259.427637 155.316971 
L 250.580632 159.029813 
L 238.654059 163.659609 
L 232.608491 165.690116 
L 229.70763 166.619076 
L 190.745708 177.395922 
L 184.761851 179.457945 
L 181.799278 180.714068 
L 178.651143 182.20731 
L 175.708927 183.92266 
L 172.605361 186.092736 
L 169.680501 188.60048 
L 166.504938 191.609472 
L 163.61072 194.818064 
L 162.893325 196.515407 
L 164.716167 197.270281 
L 167.747736 197.139716 
L 173.463748 196.590443 
L 182.396464 195.116712 
L 188.335751 193.796057 
L 194.274825 192.338835 
L 203.197469 189.6495 
L 212.099329 186.4229 
L 227.204893 180.660041 
L 233.099396 178.68056 
L 239.02497 176.894674 
L 266.091176 169.787149 
L 272.112745 167.884205 
L 275.147528 166.818676 
L 281.186454 164.28692 
L 287.269734 161.211894 
L 293.370371 157.401505 
L 296.449724 155.280953 
L 302.519505 150.348006 
L 308.650783 144.879294 
L 308.746993 143.630673 
L 306.676878 143.186454 
L 303.889154 143.359039 
L 298.101145 144.016365 
L 289.195642 145.562132 
L 283.31828 146.827259 
L 277.368708 148.347514 
L 271.34371 150.09438 
L 265.432064 152.106879 
L 259.441351 154.347489 
L 250.460423 158.055829 
L 241.527708 161.798686 
L 232.519353 165.248897 
L 223.686061 168.281901 
L 220.548211 169.149332 
L 217.643707 170.151829 
L 202.709993 174.744107 
L 196.732993 176.773114 
L 190.683996 179.018227 
L 184.689854 181.679047 
L 181.637715 183.223313 
L 178.524078 184.979184 
L 175.592147 186.858116 
L 172.492223 189.106232 
L 166.422442 194.079698 
L 163.494154 196.641468 
L 163.040961 197.866077 
L 164.815805 198.440861 
L 167.812876 198.281783 
L 173.587385 197.582436 
L 179.427035 196.713504 
L 188.42489 194.840575 
L 194.33675 193.35934 
L 200.409745 191.618477 
L 206.252823 189.732041 
L 215.247464 186.416897 
L 233.175036 179.570501 
L 233.175036 179.570501 
" style="fill:none;stroke:#1f77b4;stroke-linecap:square;stroke-width:1.5;"/>
   </g>
   <g id="line2d_20">
    <path clip-path="url(#pf303f138bc)" d="M 236.051898 195.612709 
L 241.153368 194.661237 
L 245.736506 193.985902 
L 250.213364 193.130477 
L 258.912733 191.114978 
L 263.413375 189.762806 
L 267.553606 188.247055 
L 272.12303 186.099489 
L 276.42461 183.362132 
L 280.57534 179.644788 
L 284.815209 174.792882 
L 289.106504 168.785401 
L 297.689093 154.009071 
L 302.090311 145.966583 
L 306.611524 138.165713 
L 311.146664 131.010163 
L 315.802013 124.657513 
L 320.03481 119.179795 
L 329.256155 109.81515 
L 333.561163 105.835177 
L 346.792245 94.870738 
L 342.346458 93.48405 
L 337.330697 92.730676 
L 333.032546 92.217421 
L 328.854388 91.849738 
L 320.189303 91.855741 
L 315.932292 92.088357 
L 306.937865 92.985803 
L 298.135429 94.307958 
L 289.556268 96.002299 
L 280.533985 98.184381 
L 276.180979 99.428498 
L 271.728335 100.831694 
L 267.220622 102.383463 
L 263.025537 104.020777 
L 258.329047 106.102308 
L 254.058323 108.254376 
L 249.574608 110.828153 
L 245.293599 113.66606 
L 240.810099 117.479452 
L 236.566802 121.450422 
L 232.323505 126.40588 
L 227.89486 131.892602 
L 223.43193 137.83555 
L 219.092638 143.961588 
L 214.495572 150.027597 
L 205.727634 160.915498 
L 196.516789 170.862432 
L 192.156712 175.483223 
L 174.335635 193.5807 
L 169.869277 198.305045 
L 161.011987 208.218962 
L 152.223264 217.91227 
L 143.1052 226.840198 
L 134.079489 235.002747 
L 129.45521 238.894178 
L 125.229055 242.677555 
L 129.541135 244.187303 
L 134.979017 244.966189 
L 139.108963 245.695551 
L 143.293977 246.073739 
L 147.581843 246.205805 
L 152.010489 246.154779 
L 160.747571 245.602505 
L 169.481439 244.545982 
L 178.414154 242.985206 
L 187.371083 241.043243 
L 196.022455 238.675069 
L 200.650162 237.238857 
L 205.027382 235.69459 
L 213.990953 231.936727 
L 218.158825 229.733634 
L 222.432978 227.171863 
L 227.091541 224.04131 
L 231.324553 220.585096 
L 240.195557 212.40754 
L 244.730697 208.442573 
L 249.128487 204.845288 
L 253.594845 201.543651 
L 262.568916 195.200003 
L 266.750287 191.761798 
L 271.199503 187.679774 
L 275.528724 182.985445 
L 279.837161 177.417683 
L 284.200667 171.075538 
L 288.591385 164.001028 
L 297.538029 149.298235 
L 302.090311 142.124677 
L 306.539527 135.594938 
L 311.163806 129.500414 
L 315.692089 124.064718 
L 320.03481 119.206809 
L 324.765584 114.709078 
L 329.201086 110.66007 
L 333.698514 106.836173 
L 347.066946 96.311452 
L 342.329316 95.043323 
L 332.854054 93.755684 
L 328.579902 93.500557 
L 324.333176 93.439028 
L 315.812298 93.719666 
L 306.738589 94.659133 
L 302.406153 95.215909 
L 297.946652 95.901749 
L 289.281567 97.536059 
L 280.245785 99.647607 
L 275.916563 100.80468 
L 271.508488 102.114831 
L 267.018131 103.629082 
L 262.881329 105.161342 
L 258.201982 107.038773 
L 253.745909 109.099296 
L 249.512897 111.500486 
L 245.073967 114.303877 
L 240.679605 117.601012 
L 236.333456 121.517956 
L 232.278936 126.075716 
L 227.750652 131.616464 
L 223.301436 137.65546 
L 214.506071 150.61889 
L 205.648566 162.973018 
L 196.612784 174.222598 
L 187.662926 184.706799 
L 165.389206 209.596645 
L 156.377423 218.958289 
L 151.914279 223.290937 
L 147.362211 227.350451 
L 138.542633 234.852673 
L 133.763647 238.458962 
L 125.119346 245.327869 
L 129.661343 246.70105 
L 143.455326 248.123756 
L 152.18898 248.15377 
L 156.411707 247.912151 
L 165.358136 247.047722 
L 174.116003 245.746577 
L 182.787945 244.112266 
L 191.888867 241.991714 
L 200.732444 239.462959 
L 205.11652 237.97272 
L 209.373531 236.357919 
L 213.905243 234.475986 
L 218.299604 232.361437 
L 222.597756 229.94824 
L 227.077827 227.10733 
L 231.496187 223.774177 
L 235.681201 220.028319 
L 235.681201 220.028319 
" style="fill:none;stroke:#ff7f0e;stroke-linecap:square;stroke-width:1.5;"/>
   </g>
   <g id="line2d_21">
    <path clip-path="url(#pf303f138bc)" d="M 235.997044 270.815762 
L 243.80717 269.209966 
L 250.426139 268.024377 
L 257.017681 266.403573 
L 263.097533 263.927345 
L 269.043677 259.695246 
L 274.800831 252.536695 
L 280.27664 239.945449 
L 286.02008 220.570839 
L 292.350634 196.093697 
L 299.865703 174.287881 
L 307.057859 158.530065 
L 314.226231 147.244466 
L 320.608211 139.00538 
L 327.560165 132.101956 
L 333.956073 126.174015 
L 340.489118 120.80135 
L 353.328718 111.436704 
L 366.158033 102.657349 
L 372.677578 98.035057 
L 379.049274 93.367742 
L 391.995369 83.492843 
L 398.439275 78.090164 
L 391.088984 74.968615 
L 377.500919 69.911107 
L 371.427924 68.050184 
L 358.797671 65.889112 
L 352.209557 65.063702 
L 346.036924 64.583464 
L 339.593018 64.583464 
L 333.255607 64.418382 
L 313.985814 65.633985 
L 307.31199 66.054194 
L 288.193262 68.815563 
L 281.4198 70.166234 
L 274.972465 71.276784 
L 268.545915 72.702491 
L 262.194576 74.248258 
L 255.613534 76.094173 
L 242.777148 80.896556 
L 236.36774 84.498343 
L 230.291102 89.285717 
L 224.111612 95.648873 
L 218.254821 106.334173 
L 212.367174 121.071484 
L 206.249395 139.530641 
L 199.537859 160.225906 
L 192.671615 179.135285 
L 185.59624 194.78805 
L 178.853633 207.259235 
L 171.935964 217.389261 
L 165.32728 225.538302 
L 158.708311 232.636823 
L 152.16841 238.309638 
L 145.556297 243.547235 
L 139.126105 248.109499 
L 132.417997 252.581717 
L 126.094299 256.378601 
L 119.509614 260.190492 
L 112.832362 264.242501 
L 106.426169 267.844287 
L 86.765109 279.445042 
L 80.214922 283.51206 
L 73.832727 287.624099 
L 88.213825 291.766154 
L 94.359031 292.951741 
L 100.42517 293.852189 
L 106.790223 294.677597 
L 113.223629 295.142829 
L 125.960377 295.488 
L 132.287503 295.157836 
L 138.837904 294.977747 
L 151.725502 294.122323 
L 164.657884 292.621577 
L 177.569695 290.775663 
L 183.94139 290.100328 
L 190.608357 288.584576 
L 196.949197 287.398987 
L 209.902149 284.232416 
L 216.380339 282.476546 
L 223.044092 280.090363 
L 229.309292 277.479067 
L 235.739484 274.132407 
L 242.090609 269.8853 
L 248.613369 264.572665 
L 254.789431 259.154977 
L 261.144198 252.071464 
L 267.007846 242.751842 
L 272.764999 229.890462 
L 278.604649 211.656417 
L 284.983415 188.845102 
L 292.045077 167.234382 
L 299.460508 150.591126 
L 306.443317 138.315037 
L 313.319846 128.890363 
L 319.681256 121.491693 
L 326.643494 114.963453 
L 333.046259 109.75587 
L 339.510736 104.968496 
L 352.542541 95.828962 
L 359.244007 92.047086 
L 372.231243 83.477836 
L 378.475873 79.560893 
L 385.3764 74.953608 
L 391.583317 70.181241 
L 398.487273 65.363851 
L 391.43911 62.467414 
L 383.937969 59.916148 
L 377.978111 58.160277 
L 371.688697 56.554481 
L 365.334144 55.443931 
L 352.638751 53.898164 
L 346.153704 53.568 
L 339.953643 53.763097 
L 333.341531 53.703067 
L 326.983335 53.823127 
L 320.368009 54.213321 
L 314.184876 54.903662 
L 307.638117 55.248834 
L 301.084288 56.134274 
L 294.637168 57.139772 
L 288.2929 57.875137 
L 281.642861 59.255822 
L 268.66591 61.626997 
L 255.750885 64.943643 
L 249.241624 67.074699 
L 242.996994 69.385846 
L 236.408881 72.657469 
L 230.346171 76.814531 
L 224.173538 83.327761 
L 218.309889 92.947534 
L 212.456526 106.919464 
L 206.548095 126.20403 
L 200.021907 148.114898 
L 193.045955 169.230372 
L 185.809015 186.759067 
L 179.093836 200.190729 
L 172.015032 210.815999 
L 165.591696 219.055087 
L 158.825091 226.303683 
L 152.374328 232.066541 
L 145.807 237.259117 
L 139.321953 241.791365 
L 126.300218 249.835355 
L 119.791172 253.407127 
L 113.086493 257.369091 
L 106.659729 261.0159 
L 99.979048 264.677717 
L 93.8167 268.399563 
L 86.960742 272.121409 
L 73.92208 280.255443 
L 80.547906 282.431523 
L 87.825987 284.217409 
L 100.167825 286.633608 
L 106.639158 287.218899 
L 112.938857 287.669121 
L 119.543898 287.939255 
L 125.802456 288.059315 
L 138.66627 287.579076 
L 145.04825 287.233906 
L 151.543582 286.513548 
L 157.96349 286.108347 
L 164.300901 285.372983 
L 177.37749 283.542075 
L 196.935483 280.195414 
L 203.300536 278.919781 
L 216.318627 275.588129 
L 222.741963 273.427057 
L 229.20644 270.890799 
L 235.461355 267.904317 
L 235.461355 267.904317 
" style="fill:none;stroke:#2ca02c;stroke-linecap:square;stroke-width:1.5;"/>
   </g>
   <g id="patch_3">
    <path d="M 57.6 307.584 
L 57.6 41.472 
" style="fill:none;stroke:#000000;stroke-linecap:square;stroke-linejoin:miter;stroke-width:0.8;"/>
   </g>
   <g id="patch_4">
    <path d="M 414.72 307.584 
L 414.72 41.472 
" style="fill:none;stroke:#000000;stroke-linecap:square;stroke-linejoin:miter;stroke-width:0.8;"/>
   </g>
   <g id="patch_5">
    <path d="M 57.6 307.584 
L 414.72 307.584 
" style="fill:none;stroke:#000000;stroke-linecap:square;stroke-linejoin:miter;stroke-width:0.8;"/>
   </g>
   <g id="patch_6">
    <path d="M 57.6 41.472 
L 414.72 41.472 
" style="fill:none;stroke:#000000;stroke-linecap:square;stroke-linejoin:miter;stroke-width:0.8;"/>
   </g>
   <g id="legend_1">
    <g id="line2d_22">
     <path d="M 329.390313 264.666812 
L 349.390313 264.666812 
" style="fill:none;stroke:#1f77b4;stroke-linecap:square;stroke-width:1.5;"/>
    </g>
    <g id="line2d_23"/>
    <g id="text_19">
     <!-- 600kV/cm -->
     <g transform="translate(357.390313 268.166812)scale(0.1 -0.1)">
      <defs>
       <path d="M 3006 4325 
L 3006 4238 
Q 2441 4094 2098 3867 
Q 1756 3641 1557 3317 
Q 1359 2994 1250 2516 
Q 1388 2609 1478 2638 
Q 1681 2700 1888 2700 
Q 2363 2700 2680 2354 
Q 2997 2009 2997 1413 
Q 2997 994 2825 644 
Q 2653 294 2337 103 
Q 2022 -88 1663 -88 
Q 1272 -88 940 126 
Q 609 341 423 753 
Q 238 1166 238 1650 
Q 238 2363 580 2977 
Q 922 3591 1551 3955 
Q 2181 4319 3006 4325 
z
M 1209 2263 
Q 1184 1831 1184 1631 
Q 1184 1200 1267 797 
Q 1350 394 1494 231 
Q 1597 116 1738 116 
Q 1881 116 1993 283 
Q 2106 450 2106 963 
Q 2106 1825 1897 2153 
Q 1763 2366 1534 2366 
Q 1409 2366 1209 2263 
z
" id="TimesNewRomanPS-BoldMT-36" transform="scale(0.015625)"/>
      </defs>
      <use xlink:href="#TimesNewRomanPS-BoldMT-36"/>
      <use x="50" xlink:href="#TimesNewRomanPS-BoldMT-30"/>
      <use x="100" xlink:href="#TimesNewRomanPS-BoldMT-30"/>
      <use x="150" xlink:href="#TimesNewRomanPS-BoldMT-6b"/>
      <use x="205.615234" xlink:href="#TimesNewRomanPS-BoldMT-56"/>
      <use x="277.832031" xlink:href="#TimesNewRomanPS-BoldMT-2f"/>
      <use x="305.615234" xlink:href="#TimesNewRomanPS-BoldMT-63"/>
      <use x="350" xlink:href="#TimesNewRomanPS-BoldMT-6d"/>
     </g>
    </g>
    <g id="line2d_24">
     <path d="M 329.390313 278.805875 
L 349.390313 278.805875 
" style="fill:none;stroke:#ff7f0e;stroke-linecap:square;stroke-width:1.5;"/>
    </g>
    <g id="line2d_25"/>
    <g id="text_20">
     <!-- 1000kV/cm -->
     <g transform="translate(357.390313 282.305875)scale(0.1 -0.1)">
      <use xlink:href="#TimesNewRomanPS-BoldMT-31"/>
      <use x="50" xlink:href="#TimesNewRomanPS-BoldMT-30"/>
      <use x="100" xlink:href="#TimesNewRomanPS-BoldMT-30"/>
      <use x="150" xlink:href="#TimesNewRomanPS-BoldMT-30"/>
      <use x="200" xlink:href="#TimesNewRomanPS-BoldMT-6b"/>
      <use x="255.615234" xlink:href="#TimesNewRomanPS-BoldMT-56"/>
      <use x="327.832031" xlink:href="#TimesNewRomanPS-BoldMT-2f"/>
      <use x="355.615234" xlink:href="#TimesNewRomanPS-BoldMT-63"/>
      <use x="400" xlink:href="#TimesNewRomanPS-BoldMT-6d"/>
     </g>
    </g>
    <g id="line2d_26">
     <path d="M 329.390313 292.944937 
L 349.390313 292.944937 
" style="fill:none;stroke:#2ca02c;stroke-linecap:square;stroke-width:1.5;"/>
    </g>
    <g id="line2d_27"/>
    <g id="text_21">
     <!-- 1400kV/cm -->
     <g transform="translate(357.390313 296.444937)scale(0.1 -0.1)">
      <defs>
       <path d="M 159 1597 
L 2172 4325 
L 2553 4325 
L 2553 1597 
L 2941 1597 
L 2941 950 
L 2553 950 
L 2553 0 
L 1694 0 
L 1694 950 
L 159 950 
L 159 1597 
z
M 463 1597 
L 1694 1597 
L 1694 3269 
L 463 1597 
z
" id="TimesNewRomanPS-BoldMT-34" transform="scale(0.015625)"/>
      </defs>
      <use xlink:href="#TimesNewRomanPS-BoldMT-31"/>
      <use x="50" xlink:href="#TimesNewRomanPS-BoldMT-34"/>
      <use x="100" xlink:href="#TimesNewRomanPS-BoldMT-30"/>
      <use x="150" xlink:href="#TimesNewRomanPS-BoldMT-30"/>
      <use x="200" xlink:href="#TimesNewRomanPS-BoldMT-6b"/>
      <use x="255.615234" xlink:href="#TimesNewRomanPS-BoldMT-56"/>
      <use x="327.832031" xlink:href="#TimesNewRomanPS-BoldMT-2f"/>
      <use x="355.615234" xlink:href="#TimesNewRomanPS-BoldMT-63"/>
      <use x="400" xlink:href="#TimesNewRomanPS-BoldMT-6d"/>
     </g>
    </g>
   </g>
  </g>
 </g>
 <defs>
  <clipPath id="pf303f138bc">
   <rect height="266.112" width="357.12" x="57.6" y="41.472"/>
  </clipPath>
 </defs>
</svg>
